<?xml version="1.0" encoding="utf-8"?>
<!-- Generator: Adobe Illustrator 25.4.1, SVG Export Plug-In . SVG Version: 6.00 Build 0)  -->
<svg version="1.1" id="list" xmlns="http://www.w3.org/2000/svg" xmlns:xlink="http://www.w3.org/1999/xlink" x="0px" y="0px"
	 viewBox="0 0 200 200" style="enable-background:new 0 0 200 200;" xml:space="preserve">
<style type="text/css">
	.st0{fill:#FFFFFF;}
</style>
<path id="list_00000053507942249543296200000013171853285765818521_" class="st0" d="M176.32,155.36c-1.21-1.21-2.79-1.87-4.48-1.87
	H25.26c-3.51,0-6.36,2.85-6.36,6.35c0,3.51,2.85,6.36,6.36,6.36h146.58c3.5,0,6.35-2.85,6.35-6.36
	C178.19,158.15,177.53,156.57,176.32,155.36"/>
<path id="list_00000080913084560535889560000012039117095602870154_" class="st0" d="M171.84,90.05H25.26
	c-3.51,0-6.35,2.85-6.35,6.36c0,3.5,2.85,6.35,6.35,6.35h146.58c3.5,0,6.35-2.85,6.35-6.35c0-1.69-0.66-3.28-1.87-4.49
	C175.12,90.71,173.53,90.05,171.84,90.05"/>
<path id="list_00000085236238016122255680000017851221848297261488_" class="st0" d="M176.32,30.16c-1.21-1.21-2.79-1.87-4.48-1.87
	H25.26c-3.51,0-6.36,2.85-6.36,6.36c0,3.51,2.85,6.35,6.36,6.35h146.58c3.5,0,6.35-2.85,6.35-6.35
	C178.19,32.96,177.53,31.37,176.32,30.16"/>
</svg>
