<?xml version="1.0" standalone="no"?><!DOCTYPE svg PUBLIC "-//W3C//DTD SVG 1.1//EN" "http://www.w3.org/Graphics/SVG/1.1/DTD/svg11.dtd"><svg t="1713957636426" class="icon" viewBox="0 0 1024 1024" version="1.1" xmlns="http://www.w3.org/2000/svg" p-id="40397" xmlns:xlink="http://www.w3.org/1999/xlink" width="200" height="200" fill="#ffffff"><path d="M341.138286 240.566857v670.281143c0 17.700571-8.557714 34.304-28.013715 34.304a42.057143 42.057143 0 0 1-18.870857-4.571429L28.525714 807.424c-16.018286-8.009143-28.562286-28.562286-28.562285-45.714286V110.262857c0-14.299429 6.838857-27.428571 22.272-27.428571 9.142857 0 17.152 4.571429 25.161142 8.557714l291.986286 146.285714a7.68 7.68 0 0 1 1.718857 2.852572z m36.571428 57.709714l305.152 494.848-305.152-151.990857V298.276571zM1024 308.553143v602.294857c0 18.870857-10.861714 32-29.696 32-9.728 0-18.870857-2.852571-26.843429-7.424l-252.013714-125.696z m-1.718857-68.534857c0 2.304-295.424 481.718857-318.281143 518.290285l-222.866286-362.276571 185.161143-301.129143a34.486857 34.486857 0 0 1 29.696-16.018286c5.156571 0 10.276571 1.133714 14.848 3.437715L1019.977143 236.617143c1.133714 0.585143 2.304 1.718857 2.304 3.437714z" p-id="40398"></path></svg>