<?xml version="1.0" encoding="utf-8"?>
<!-- Generator: Adobe Illustrator 24.0.1, SVG Export Plug-In . SVG Version: 6.00 Build 0)  -->
<svg version="1.1"
	 id="svg5" xmlns:inkscape="http://www.inkscape.org/namespaces/inkscape" xmlns:sodipodi="http://sodipodi.sourceforge.net/DTD/sodipodi-0.dtd" xmlns:svg="http://www.w3.org/2000/svg"
	 xmlns="http://www.w3.org/2000/svg" xmlns:xlink="http://www.w3.org/1999/xlink" x="0px" y="0px" viewBox="0 0 697.7 698.3"
	 style="enable-background:new 0 0 697.7 698.3;" xml:space="preserve" fill="#ffffff">
<sodipodi:namedview  bordercolor="#ffffff" borderopacity="1.0" id="namedview7" inkscape:current-layer="layer1" inkscape:cx="-391.86709" inkscape:cy="780.61174" inkscape:document-units="mm" inkscape:pagecheckerboard="0" inkscape:pageopacity="0.0" inkscape:pageshadow="2" inkscape:window-height="1017" inkscape:window-maximized="1" inkscape:window-width="1920" inkscape:window-x="-8" inkscape:window-y="-8" inkscape:zoom="0.32026164" pagecolor="#ffffff" showgrid="false">
	</sodipodi:namedview>
<g id="layer1" transform="translate(10.164159,-14.177668)" inkscape:groupmode="layer" inkscape:label="Layer 1">
	<path id="path834" d="M415.4,298.2L636,47.1c11.2-12.8,2.2-32.9-14.9-32.9h-8.8c-5.7,0-11.1,2.5-14.9,6.7L394.3,252
		c-8.5,9.6-23.7,8.8-31.1-1.7L203.5,22.6c-3.7-5.3-9.8-8.4-16.2-8.4H27.9c-16,0-25.4,18.1-16.2,31.2l241.6,344.3
		c5.2,7.5,4.7,17.6-1.3,24.4L18.7,679.6c-11.2,12.8-2.2,32.9,14.9,32.9h8.8c5.7,0,11.1-2.5,14.9-6.7l215.6-245.5
		c8.5-9.6,23.7-8.8,31.1,1.7l169.8,242.1c3.7,5.3,9.8,8.4,16.2,8.4h159.4c16,0,25.4-18,16.2-31.2L414,322.6
		C408.8,315.2,409.3,305.1,415.4,298.2z M320.8,405.8l-27.6-38.7L96,90.9c-9.4-13.1,0-31.3,16.1-31.3h45.8c6.4,0,12.4,3.1,16.1,8.3
		l171.4,240l27.5,38.7l208,291.4c9.4,13.1,0,31.3-16.1,31.3H519c-6.4,0-12.4-3.1-16.1-8.3L320.8,405.8z"/>
</g>
</svg>
